<?xml version="1.0" encoding="UTF-8" standalone="no"?>
<!DOCTYPE svg PUBLIC "-//W3C//DTD SVG 1.1//EN"
 "http://www.w3.org/Graphics/SVG/1.1/DTD/svg11.dtd">
<!-- Generated by graphviz version 11.0.0 (20240428.1522)
 -->
<!-- Title: G Pages: 1 -->
<svg width="830pt" height="566pt"
 viewBox="0.00 0.00 830.12 565.85" xmlns="http://www.w3.org/2000/svg" xmlns:xlink="http://www.w3.org/1999/xlink">
<g id="graph0" class="graph" transform="scale(1 1) rotate(0) translate(36 529.85)">
<title>G</title>
<polygon fill="white" stroke="none" points="-36,36 -36,-529.85 794.12,-529.85 794.12,36 -36,36"/>
<text text-anchor="middle" x="379.06" y="-6.45" font-family="Times New Roman,serif" font-size="14.00">Matriz Dispersa</text>
<!-- Fila7 -->
<g id="node1" class="node">
<title>Fila7</title>
<polygon fill="white" stroke="black" points="54,-325.93 0,-325.93 0,-268.32 54,-268.32 54,-325.93"/>
<text text-anchor="middle" x="27" y="-291.7" font-family="Times New Roman,serif" font-size="14.00">7</text>
</g>
<!-- Fila14 -->
<g id="node2" class="node">
<title>Fila14</title>
<polygon fill="white" stroke="black" points="54,-119.67 0,-119.67 0,-62.08 54,-62.08 54,-119.67"/>
<text text-anchor="middle" x="27" y="-85.45" font-family="Times New Roman,serif" font-size="14.00">14</text>
</g>
<!-- Fila7&#45;&gt;Fila14 -->
<g id="edge1" class="edge">
<title>Fila7&#45;&gt;Fila14</title>
<path fill="none" stroke="black" d="M27,-256.7C27,-220.57 27,-167.36 27,-131.25"/>
<polygon fill="black" stroke="black" points="23.5,-256.64 27,-266.64 30.5,-256.64 23.5,-256.64"/>
<polygon fill="black" stroke="black" points="30.5,-131.68 27,-121.68 23.5,-131.68 30.5,-131.68"/>
</g>
<!-- NodoF7_C1 -->
<g id="node4" class="node">
<title>NodoF7_C1</title>
<polygon fill="lightgrey" stroke="black" points="496.38,-364.25 125.62,-364.25 125.62,-230 496.38,-230 496.38,-364.25"/>
<text text-anchor="middle" x="311" y="-330.95" font-family="Times New Roman,serif" font-size="14.00"> &#160;&#160;&#160;&#160;&#160;&#160;&#160;ID: 2</text>
<text text-anchor="middle" x="311" y="-315.2" font-family="Times New Roman,serif" font-size="14.00"> &#160;&#160;&#160;&#160;&#160;&#160;&#160;Nombre: Limpieza de estanterías</text>
<text text-anchor="middle" x="311" y="-299.45" font-family="Times New Roman,serif" font-size="14.00"> &#160;&#160;&#160;&#160;&#160;&#160;&#160;Descripción: Limpiar y ordenar las estanterias del pasillo 1</text>
<text text-anchor="middle" x="311" y="-283.7" font-family="Times New Roman,serif" font-size="14.00"> &#160;&#160;&#160;&#160;&#160;&#160;&#160;Empleado: 1</text>
<text text-anchor="middle" x="311" y="-267.95" font-family="Times New Roman,serif" font-size="14.00"> &#160;&#160;&#160;&#160;&#160;&#160;&#160;Día: 1</text>
<text text-anchor="middle" x="311" y="-252.2" font-family="Times New Roman,serif" font-size="14.00"> &#160;&#160;&#160;&#160;&#160;&#160;&#160;Hora: 7</text>
<text text-anchor="middle" x="311" y="-236.45" font-family="Times New Roman,serif" font-size="14.00"> &#160;&#160;&#160;&#160;&#160;&#160;&#160;</text>
</g>
<!-- Fila7&#45;&gt;NodoF7_C1 -->
<g id="edge5" class="edge">
<title>Fila7&#45;&gt;NodoF7_C1</title>
<path fill="none" stroke="black" d="M54.46,-297.12C74.31,-297.12 94.15,-297.12 114,-297.12"/>
<polygon fill="black" stroke="black" points="113.84,-300.63 123.84,-297.13 113.84,-293.63 113.84,-300.63"/>
</g>
<!-- NodoF14_C2 -->
<g id="node6" class="node">
<title>NodoF14_C2</title>
<polygon fill="lightgrey" stroke="black" points="758.12,-158 451.88,-158 451.88,-23.75 758.12,-23.75 758.12,-158"/>
<text text-anchor="middle" x="605" y="-124.7" font-family="Times New Roman,serif" font-size="14.00"> &#160;&#160;&#160;&#160;&#160;&#160;&#160;ID: 1</text>
<text text-anchor="middle" x="605" y="-108.95" font-family="Times New Roman,serif" font-size="14.00"> &#160;&#160;&#160;&#160;&#160;&#160;&#160;Nombre: Atención al Cliente</text>
<text text-anchor="middle" x="605" y="-93.2" font-family="Times New Roman,serif" font-size="14.00"> &#160;&#160;&#160;&#160;&#160;&#160;&#160;Descripción: Atender a los clientes de la tienda</text>
<text text-anchor="middle" x="605" y="-77.45" font-family="Times New Roman,serif" font-size="14.00"> &#160;&#160;&#160;&#160;&#160;&#160;&#160;Empleado: 1</text>
<text text-anchor="middle" x="605" y="-61.7" font-family="Times New Roman,serif" font-size="14.00"> &#160;&#160;&#160;&#160;&#160;&#160;&#160;Día: 2</text>
<text text-anchor="middle" x="605" y="-45.95" font-family="Times New Roman,serif" font-size="14.00"> &#160;&#160;&#160;&#160;&#160;&#160;&#160;Hora: 14</text>
<text text-anchor="middle" x="605" y="-30.2" font-family="Times New Roman,serif" font-size="14.00"> &#160;&#160;&#160;&#160;&#160;&#160;&#160;</text>
</g>
<!-- Fila14&#45;&gt;NodoF14_C2 -->
<g id="edge6" class="edge">
<title>Fila14&#45;&gt;NodoF14_C2</title>
<path fill="none" stroke="black" d="M54.38,-90.88C183,-90.88 311.62,-90.88 440.24,-90.88"/>
<polygon fill="black" stroke="black" points="439.97,-94.38 449.97,-90.88 439.97,-87.38 439.97,-94.38"/>
</g>
<!-- Columna1 -->
<g id="node3" class="node">
<title>Columna1</title>
<polygon fill="white" stroke="black" points="338,-493.85 284,-493.85 284,-436.25 338,-436.25 338,-493.85"/>
<text text-anchor="middle" x="311" y="-459.62" font-family="Times New Roman,serif" font-size="14.00">1</text>
</g>
<!-- Columna1&#45;&gt;NodoF7_C1 -->
<g id="edge2" class="edge">
<title>Columna1&#45;&gt;NodoF7_C1</title>
<path fill="none" stroke="black" d="M311,-435.9C311,-419.29 311,-397.36 311,-375.9"/>
<polygon fill="black" stroke="black" points="314.5,-375.92 311,-365.92 307.5,-375.92 314.5,-375.92"/>
</g>
<!-- Columna2 -->
<g id="node5" class="node">
<title>Columna2</title>
<polygon fill="white" stroke="black" points="632,-493.85 578,-493.85 578,-436.25 632,-436.25 632,-493.85"/>
<text text-anchor="middle" x="605" y="-459.62" font-family="Times New Roman,serif" font-size="14.00">2</text>
</g>
<!-- Columna1&#45;&gt;Columna2 -->
<g id="edge4" class="edge">
<title>Columna1&#45;&gt;Columna2</title>
<path fill="none" stroke="black" d="M349.5,-465.05C421.83,-465.05 494.17,-465.05 566.51,-465.05"/>
<polygon fill="black" stroke="black" points="349.79,-461.55 339.79,-465.05 349.79,-468.55 349.79,-461.55"/>
<polygon fill="black" stroke="black" points="566.14,-468.55 576.14,-465.05 566.14,-461.55 566.14,-468.55"/>
</g>
<!-- Columna2&#45;&gt;NodoF14_C2 -->
<g id="edge3" class="edge">
<title>Columna2&#45;&gt;NodoF14_C2</title>
<path fill="none" stroke="black" d="M605,-435.77C605,-379.71 605,-252.76 605,-169.78"/>
<polygon fill="black" stroke="black" points="608.5,-169.89 605,-159.89 601.5,-169.89 608.5,-169.89"/>
</g>
</g>
</svg>
